<?xml version="1.0" encoding="utf-8"?>
<!-- Generator: Adobe Illustrator 24.0.1, SVG Export Plug-In . SVG Version: 6.00 Build 0)  -->
<svg version="1.1" id="accd11e2-29f9-4e91-8363-bcf43fd88ac6"
	 xmlns="http://www.w3.org/2000/svg" xmlns:xlink="http://www.w3.org/1999/xlink" x="0px" y="0px" viewBox="0 0 722 568.3"
	 style="enable-background:new 0 0 722 568.3;" xml:space="preserve">
<style type="text/css">
	.st0{fill:#F2F2F2;}
	.st1{fill:#FFFFFF;}
	.st2{fill:#E4E4E4;}
	.st3{fill:#ED8975;}
	.st4{fill:#2F2E41;}
	.st5{fill:#FFB6B6;}
	.st6{fill:#CACACA;}
</style>
<g>
	<path class="st0" d="M296.3,453.9l14.4,12.6l-11.4-18.3c9-15.6,23.7-29.1,23.7-29.1s30.6,28,30.6,49.9s-13.7,29.6-30.6,29.6
		c-16.9,0-30.6-7.7-30.6-29.6C292.4,464.2,293.9,459,296.3,453.9z"/>
	<path class="st1" d="M314.3,467.2v1.1c0.1,12.6,2.3,22.4,6.7,29.3c0.1,0.1,0.1,0.2,0.2,0.3l0.5-0.3l0.5-0.3c-4.8-7.5-6.6-18-6.6-29
		c0-0.4,0-0.7,0-1.1c0-4.6,0.3-9.4,0.8-13.9c0-0.4,0.1-0.7,0.1-1.1c0.7-6,1.6-11.8,2.6-16.8c0.1-0.4,0.1-0.7,0.2-1.1
		c1.7-8.5,3.4-14.6,3.8-15.9c0-0.2,0.1-0.3,0.1-0.3l-0.5-0.1l0,0l-0.5-0.1c0,0-0.1,0.3-0.3,0.9c-0.6,2.1-2.2,7.9-3.7,15.5
		c-0.1,0.3-0.1,0.7-0.2,1.1c-0.8,4.1-1.6,8.6-2.2,13.4c-0.2,1.2-0.3,2.4-0.4,3.5c0,0.4-0.1,0.7-0.1,1.1
		C314.6,458.3,314.4,462.9,314.3,467.2z"/>
	<path class="st1" d="M318.1,434.3c0.4,0,0.8,0.1,1.1,0.1c1.1,0.1,2.1,0.2,3.2,0.2c4.5,0,9-1,13-2.8c0.2,0.3,0.5,0.6,0.7,0.9
		c-4.3,2-9,3-13.7,3c-1.1,0-2.3-0.1-3.4-0.2c-0.4,0-0.8-0.1-1.1-0.1c-3.1-0.4-6.1-1.3-9-2.6c0.2-0.3,0.5-0.6,0.7-0.9
		C312.3,433.1,315.2,433.9,318.1,434.3z"/>
	<path class="st1" d="M315.3,452.2c0.4,0,0.8,0,1.2,0c0.1,0,0.2,0,0.4,0c9.9,0,19.2-4.6,24.9-12.4c0.2,0.3,0.4,0.6,0.7,1
		c-5.9,7.9-15.4,12.5-25.5,12.5c-0.2,0-0.3,0-0.5,0c-0.4,0-0.8,0-1.2,0c-6-0.3-11.8-2.2-16.7-5.6c0.2-0.3,0.4-0.6,0.5-0.9
		C303.8,450.1,309.4,452,315.3,452.2z"/>
	<path class="st1" d="M314.3,467.2c0.4,0,0.8,0.1,1.2,0.1c0.4,0,0.8,0,1.3,0c13.5,0,25.3-8.5,29.1-20.9c0.3,0.4,0.5,0.9,0.7,1.3
		c-4.3,12.3-16.3,20.6-29.9,20.6c-0.4,0-0.8,0-1.3,0c-0.4,0-0.8,0-1.2-0.1c-7.9-0.6-15.3-4-20.7-9.7c0.1-0.4,0.3-0.8,0.4-1.2
		C299.2,463.1,306.5,466.6,314.3,467.2z"/>
	<ellipse class="st2" cx="553.5" cy="166.7" rx="73.7" ry="70.4"/>
	<ellipse class="st3" cx="553.5" cy="166.7" rx="61.4" ry="58.7"/>
	<ellipse class="st2" cx="357.7" cy="166.7" rx="73.7" ry="70.4"/>
	<ellipse class="st1" cx="357.7" cy="166.7" rx="61.4" ry="58.7"/>
	<ellipse class="st2" cx="162" cy="166.7" rx="73.7" ry="70.4"/>
	<ellipse class="st1" cx="162" cy="166.7" rx="61.4" ry="58.7"/>
	<path class="st1" d="M558.7,187.9c0.1,0,0.2,0,0.3,0c2-0.1,3.8-1,5-2.5l9.4-11.6c2.3-2.8,1.8-6.9-1.2-9l-0.3-0.3
		c-2.9-2.2-7.2-1.7-9.5,1.1c-2,2.5-5.8,3-8.4,1c-0.2-0.2-0.5-0.4-0.7-0.6l-19.1-19.3c-2.6-2.6-6.8-2.7-9.5-0.2c0,0,0,0,0,0l-0.3,0.3
		c-2.7,2.4-2.8,6.5-0.3,9.1l29.7,29.9C555.1,187.1,556.9,187.9,558.7,187.9z"/>
	<path class="st4" d="M390.1,152.4h48.5v-40.3c-0.1-5.2-4.6-9.3-10-9.2h-16.1c-12.3,0-22.4,9.2-22.4,20.6V152.4z"/>
	<polygon class="st5" points="372.1,489.6 381.4,489.6 385.7,455.6 372.1,455.6 	"/>
	<path class="st4" d="M369.8,498.1l29.7,0v-0.4c0-6.1-5.2-11-11.6-11h0l-18.1,0L369.8,498.1z"/>
	<polygon class="st5" points="457,489.6 466.3,489.6 470.6,455.6 457,455.6 	"/>
	<path class="st4" d="M454.7,498.1l29.7,0v-0.4c0-6.1-5.2-11-11.6-11h0l-18.1,0L454.7,498.1z"/>
	<polygon class="st5" points="445.9,217 451.9,253.6 394.8,254.3 402.3,219.2 	"/>
	<path class="st4" d="M450.3,244.7l18.2,46.2l2.3,191.6h-15.4l-36.8-154l-33.8,149.9h-15l10.5-168.6c0,0-3.1-33.8,12.8-53.8
		l3.9-10.7L450.3,244.7z"/>
	<path class="st5" d="M372.3,280.7c6-1.6,9.5-7.5,7.9-13.2c-0.2-0.6-0.4-1.2-0.7-1.8l24.3-75.6l-17.9-3.4l-22.2,74.1
		c-5.5,2.9-7.4,9.5-4.4,14.7C361.9,279.9,367.2,282.1,372.3,280.7L372.3,280.7z"/>
	<path class="st2" d="M404.4,237.2l39.4-0.7c2.3,0,4.3-1.6,4.9-3.7c2.1-8,6.8-28.8,4.3-49.5c-2-16.6-17.7-28.4-35.1-26.5
		c-0.3,0-0.6,0.1-0.9,0.1c-17.3,2.4-29.3,17.7-26.8,34.2c0.2,1.1,0.4,2.3,0.7,3.4c5,18,7.8,30.8,8.3,38.2c0.2,2.2,1.9,4,4.1,4.4l0,0
		c0.3,0.1,0.7,0.1,1,0.1C404.3,237.2,404.4,237.2,404.4,237.2z"/>
	<path class="st5" d="M524,170.8c-0.2,0.5-0.4,1-0.6,1.6l-49.3,16l-9.5-7.9l-14.4,12.2l15.4,15.6c2.6,2.6,6.6,3.3,9.9,1.6l52.7-25.7
		c5.2,3,12,1.5,15.1-3.5c3.2-5,1.6-11.4-3.6-14.5c-5.2-3-12-1.5-15.1,3.5C524.4,170,524.2,170.4,524,170.8L524,170.8z"/>
	<path class="st2" d="M474,185.8c0-1.3-0.6-2.6-1.7-3.4l-18-14.7c-4.8-5.2-13-5.7-18.5-1.2c-5.4,4.5-6,12.4-1.3,17.6l12.8,19.1
		c1.4,2.1,4.3,2.7,6.5,1.4c0.2-0.1,0.4-0.3,0.6-0.4l18-15C473.4,188.4,474,187.1,474,185.8z"/>
	<path class="st2" d="M404.9,209.3c1.2-0.6,2.1-1.7,2.4-3l5.3-22c2.7-6.4-0.7-13.7-7.4-16.2c-6.7-2.5-14.3,0.6-17,7l-11.8,19.7
		c-1.3,2.2-0.5,4.9,1.7,6.2c0.2,0.1,0.4,0.2,0.6,0.3l22.2,8.3C402.2,209.9,403.7,209.9,404.9,209.3z"/>
	
		<ellipse transform="matrix(0.9393 -0.3431 0.3431 0.9393 -11.1603 142.1002)" class="st4" cx="396.1" cy="102.6" rx="11.1" ry="8.1"/>
	<ellipse class="st5" cx="423.6" cy="126.6" rx="23" ry="21.9"/>
	<path class="st4" d="M411,101.4h26.3c4,0,7.4,2.9,7.7,6.7c0.3,3.9-2.8,7.3-7,7.6c-0.2,0-0.3,0-0.5,0l0,0c-4.1,0-7.5,3.2-7.5,7.1
		V152H389v-29.6C389,110.8,398.8,101.4,411,101.4L411,101.4z"/>
	<path class="st6" d="M281.4,499.2h284.4c0.4,0,0.7-0.3,0.7-0.7s-0.3-0.7-0.7-0.7H281.4c-0.4,0-0.7,0.3-0.7,0.7
		S281,499.2,281.4,499.2z"/>
</g>
</svg>
